<svg xmlns="http://www.w3.org/2000/svg" width="1000" height="360" viewBox="0 0 1000 360" role="img" aria-label="r33hab: app developer, AI and neural networks">
<title>r33hab: app developer, AI and neural networks</title>
<style>
.mono{font-family:ui-monospace,'SF Mono','JetBrains Mono','Fira Code',Menlo,Consolas,monospace}
.sans{font-family:-apple-system,BlinkMacSystemFont,'Segoe UI',Inter,Helvetica,Arial,sans-serif}
@media (prefers-reduced-motion:reduce){*{animation:none!important}}

.p{fill:none;stroke-width:2.4;stroke-linecap:round;stroke-dasharray:12 300;stroke-dashoffset:12;opacity:0;
  animation:travel 6s linear infinite backwards}
.a{stroke:#22d3ee}.b{stroke:#f472b6}.af{fill:#22d3ee}.bf{fill:#f472b6}
@keyframes travel{0%{stroke-dashoffset:12;opacity:0}0.6%{opacity:1}
  8.333%{stroke-dashoffset:-100;opacity:1}9.167%,100%{stroke-dashoffset:-100;opacity:0}}
.h{opacity:0;transform-box:fill-box;transform-origin:center;animation:fire 6s ease-out infinite backwards}
.ha{fill:#22d3ee}.hb{fill:#f472b6}
@keyframes fire{0%{opacity:0;transform:scale(.4)}1.5%{opacity:.9;transform:scale(1)}
  10%,100%{opacity:0;transform:scale(2)}}
.bar{transform-box:fill-box;transform-origin:left center;transform:scaleX(0)}
@keyframes bara0{0%,33%{transform:scaleX(0)}37.5%,46.667%{transform:scaleX(0.86)}50%,100%{transform:scaleX(0)}}.bara0{animation:bara0 6s ease-in-out infinite}@keyframes bara1{0%,33%{transform:scaleX(0)}37.5%,46.667%{transform:scaleX(0.09)}50%,100%{transform:scaleX(0)}}.bara1{animation:bara1 6s ease-in-out infinite}@keyframes bara2{0%,33%{transform:scaleX(0)}37.5%,46.667%{transform:scaleX(0.05)}50%,100%{transform:scaleX(0)}}.bara2{animation:bara2 6s ease-in-out infinite}@keyframes barb0{0%,83%{transform:scaleX(0)}87.5%,96.667%{transform:scaleX(0.07)}100%,100%{transform:scaleX(0)}}.barb0{animation:barb0 6s ease-in-out infinite}@keyframes barb1{0%,83%{transform:scaleX(0)}87.5%,96.667%{transform:scaleX(0.15)}100%,100%{transform:scaleX(0)}}.barb1{animation:barb1 6s ease-in-out infinite}@keyframes barb2{0%,83%{transform:scaleX(0)}87.5%,96.667%{transform:scaleX(0.78)}100%,100%{transform:scaleX(0)}}.barb2{animation:barb2 6s ease-in-out infinite}
.nm{font-weight:800;font-size:88px;letter-spacing:-2px}
.gc,.gp{mix-blend-mode:screen;opacity:.7}
.gc{fill:#22d3ee;animation:gc 4.6s steps(1,end) infinite}
.gp{fill:#f472b6;animation:gp 4.6s steps(1,end) infinite}
@keyframes gc{0%{transform:translate(-2px,0)}86%{transform:translate(-8px,2px)}88%{transform:translate(5px,-1px)}
  90%{transform:translate(-3px,1px)}92%,100%{transform:translate(-2px,0)}}
@keyframes gp{0%{transform:translate(2px,0)}86%{transform:translate(7px,-2px)}88%{transform:translate(-6px,1px)}
  90%{transform:translate(3px,0)}92%,100%{transform:translate(2px,0)}}
.scan{animation:scan 7s linear infinite}
@keyframes scan{0%{transform:translateY(-90px)}100%{transform:translateY(450px)}}
</style>

<defs>
  <clipPath id="frame"><rect width="1000" height="360" rx="18"/></clipPath>
  <radialGradient id="g1" cx="790" cy="110" r="430" gradientUnits="userSpaceOnUse">
    <stop offset="0" stop-color="#a78bfa" stop-opacity=".2"/><stop offset="1" stop-color="#a78bfa" stop-opacity="0"/></radialGradient>
  <radialGradient id="g2" cx="90" cy="380" r="420" gradientUnits="userSpaceOnUse">
    <stop offset="0" stop-color="#fe8019" stop-opacity=".1"/><stop offset="1" stop-color="#fe8019" stop-opacity="0"/></radialGradient>
  <radialGradient id="g3" cx="1000" cy="380" r="320" gradientUnits="userSpaceOnUse">
    <stop offset="0" stop-color="#f472b6" stop-opacity=".14"/><stop offset="1" stop-color="#f472b6" stop-opacity="0"/></radialGradient>
  <linearGradient id="edge" x1="560" y1="0" x2="900" y2="0" gradientUnits="userSpaceOnUse">
    <stop offset="0" stop-color="#22d3ee"/><stop offset=".5" stop-color="#a78bfa"/><stop offset="1" stop-color="#f472b6"/></linearGradient>
  <linearGradient id="title" x1="0" y1="0" x2="1" y2="0">
    <stop offset="0" stop-color="#ebdbb2"/><stop offset=".5" stop-color="#fabd2f"/><stop offset="1" stop-color="#fe8019"/></linearGradient>
  <linearGradient id="scan" x1="0" y1="0" x2="0" y2="1">
    <stop offset="0" stop-color="#fff" stop-opacity="0"/><stop offset=".5" stop-color="#fff" stop-opacity=".035"/>
    <stop offset="1" stop-color="#fff" stop-opacity="0"/></linearGradient>
  <pattern id="dots" width="22" height="22" patternUnits="userSpaceOnUse">
    <circle cx="1" cy="1" r="1" fill="#fff" fill-opacity=".05"/></pattern>
  <filter id="glow" x="-20%" y="-20%" width="140%" height="140%">
    <feGaussianBlur stdDeviation="2.2" result="b"/><feMerge><feMergeNode in="b"/><feMergeNode in="SourceGraphic"/></feMerge></filter>
  <filter id="soft" x="-100%" y="-100%" width="300%" height="300%"><feGaussianBlur stdDeviation="4"/></filter>
</defs>
<g clip-path="url(#frame)">
  <rect width="1000" height="360" fill="#1d2021"/>
  <rect width="1000" height="360" fill="url(#dots)"/>
  <rect width="1000" height="360" fill="url(#g1)"/>
  <rect width="1000" height="360" fill="url(#g2)"/>
  <rect width="1000" height="360" fill="url(#g3)"/>
  <rect class="scan" width="1000" height="90" fill="url(#scan)"/>

  <g fill="none" stroke="#928374" stroke-opacity=".7" stroke-width="1.2"><path d="M524 52V40H536"/><path d="M984 52V40H972"/><path d="M524 302V314H536"/><path d="M984 302V314H972"/></g>
  <text x="560" y="62" text-anchor="middle" class="mono" font-size="13" fill="#a89984">x</text><text x="645" y="62" text-anchor="middle" class="mono" font-size="13" fill="#a89984">h¹</text><text x="730" y="62" text-anchor="middle" class="mono" font-size="13" fill="#a89984">h²</text><text x="815" y="62" text-anchor="middle" class="mono" font-size="13" fill="#a89984">h³</text><text x="900" y="62" text-anchor="middle" class="mono" font-size="13" fill="#a89984">ŷ</text>
  <g stroke="url(#edge)"><line x1="560" y1="132" x2="645" y2="92" stroke-opacity="0.14" stroke-width="0.82"/><line x1="560" y1="132" x2="645" y2="132" stroke-opacity="0.11" stroke-width="0.65"/><line x1="560" y1="132" x2="645" y2="172" stroke-opacity="0.27" stroke-width="1.15"/><line x1="560" y1="132" x2="645" y2="212" stroke-opacity="0.1" stroke-width="0.57"/><line x1="560" y1="132" x2="645" y2="252" stroke-opacity="0.21" stroke-width="1.04"/><line x1="560" y1="132" x2="645" y2="292" stroke-opacity="0.15" stroke-width="0.87"/><line x1="560" y1="172" x2="645" y2="92" stroke-opacity="0.1" stroke-width="0.56"/><line x1="560" y1="172" x2="645" y2="132" stroke-opacity="0.2" stroke-width="1.01"/><line x1="560" y1="172" x2="645" y2="172" stroke-opacity="0.1" stroke-width="0.54"/><line x1="560" y1="172" x2="645" y2="212" stroke-opacity="0.18" stroke-width="0.93"/><line x1="560" y1="172" x2="645" y2="252" stroke-opacity="0.1" stroke-width="0.57"/><line x1="560" y1="172" x2="645" y2="292" stroke-opacity="0.1" stroke-width="0.59"/><line x1="560" y1="212" x2="645" y2="92" stroke-opacity="0.17" stroke-width="0.92"/><line x1="560" y1="212" x2="645" y2="132" stroke-opacity="0.37" stroke-width="1.33"/><line x1="560" y1="212" x2="645" y2="172" stroke-opacity="0.11" stroke-width="0.62"/><line x1="560" y1="212" x2="645" y2="212" stroke-opacity="0.12" stroke-width="0.72"/><line x1="560" y1="212" x2="645" y2="252" stroke-opacity="0.26" stroke-width="1.13"/><line x1="560" y1="212" x2="645" y2="292" stroke-opacity="0.46" stroke-width="1.45"/><line x1="560" y1="252" x2="645" y2="92" stroke-opacity="0.23" stroke-width="1.08"/><line x1="560" y1="252" x2="645" y2="132" stroke-opacity="0.16" stroke-width="0.9"/><line x1="560" y1="252" x2="645" y2="172" stroke-opacity="0.48" stroke-width="1.48"/><line x1="560" y1="252" x2="645" y2="212" stroke-opacity="0.1" stroke-width="0.55"/><line x1="560" y1="252" x2="645" y2="252" stroke-opacity="0.39" stroke-width="1.36"/><line x1="560" y1="252" x2="645" y2="292" stroke-opacity="0.13" stroke-width="0.79"/><line x1="645" y1="92" x2="730" y2="92" stroke-opacity="0.11" stroke-width="0.64"/><line x1="645" y1="92" x2="730" y2="132" stroke-opacity="0.11" stroke-width="0.62"/><line x1="645" y1="92" x2="730" y2="172" stroke-opacity="0.14" stroke-width="0.81"/><line x1="645" y1="92" x2="730" y2="212" stroke-opacity="0.37" stroke-width="1.32"/><line x1="645" y1="92" x2="730" y2="252" stroke-opacity="0.11" stroke-width="0.68"/><line x1="645" y1="92" x2="730" y2="292" stroke-opacity="0.24" stroke-width="1.08"/><line x1="645" y1="132" x2="730" y2="92" stroke-opacity="0.26" stroke-width="1.14"/><line x1="645" y1="132" x2="730" y2="132" stroke-opacity="0.16" stroke-width="0.87"/><line x1="645" y1="132" x2="730" y2="172" stroke-opacity="0.22" stroke-width="1.05"/><line x1="645" y1="132" x2="730" y2="212" stroke-opacity="0.1" stroke-width="0.56"/><line x1="645" y1="132" x2="730" y2="252" stroke-opacity="0.1" stroke-width="0.56"/><line x1="645" y1="132" x2="730" y2="292" stroke-opacity="0.12" stroke-width="0.71"/><line x1="645" y1="172" x2="730" y2="92" stroke-opacity="0.29" stroke-width="1.18"/><line x1="645" y1="172" x2="730" y2="132" stroke-opacity="0.17" stroke-width="0.93"/><line x1="645" y1="172" x2="730" y2="172" stroke-opacity="0.14" stroke-width="0.81"/><line x1="645" y1="172" x2="730" y2="212" stroke-opacity="0.24" stroke-width="1.09"/><line x1="645" y1="172" x2="730" y2="252" stroke-opacity="0.18" stroke-width="0.95"/><line x1="645" y1="172" x2="730" y2="292" stroke-opacity="0.14" stroke-width="0.8"/><line x1="645" y1="212" x2="730" y2="92" stroke-opacity="0.35" stroke-width="1.29"/><line x1="645" y1="212" x2="730" y2="132" stroke-opacity="0.3" stroke-width="1.2"/><line x1="645" y1="212" x2="730" y2="172" stroke-opacity="0.12" stroke-width="0.74"/><line x1="645" y1="212" x2="730" y2="212" stroke-opacity="0.23" stroke-width="1.07"/><line x1="645" y1="212" x2="730" y2="252" stroke-opacity="0.21" stroke-width="1.03"/><line x1="645" y1="212" x2="730" y2="292" stroke-opacity="0.41" stroke-width="1.38"/><line x1="645" y1="252" x2="730" y2="92" stroke-opacity="0.31" stroke-width="1.23"/><line x1="645" y1="252" x2="730" y2="132" stroke-opacity="0.13" stroke-width="0.79"/><line x1="645" y1="252" x2="730" y2="172" stroke-opacity="0.48" stroke-width="1.48"/><line x1="645" y1="252" x2="730" y2="212" stroke-opacity="0.11" stroke-width="0.62"/><line x1="645" y1="252" x2="730" y2="252" stroke-opacity="0.17" stroke-width="0.92"/><line x1="645" y1="252" x2="730" y2="292" stroke-opacity="0.33" stroke-width="1.26"/><line x1="645" y1="292" x2="730" y2="92" stroke-opacity="0.11" stroke-width="0.65"/><line x1="645" y1="292" x2="730" y2="132" stroke-opacity="0.2" stroke-width="0.99"/><line x1="645" y1="292" x2="730" y2="172" stroke-opacity="0.1" stroke-width="0.54"/><line x1="645" y1="292" x2="730" y2="212" stroke-opacity="0.28" stroke-width="1.17"/><line x1="645" y1="292" x2="730" y2="252" stroke-opacity="0.33" stroke-width="1.26"/><line x1="645" y1="292" x2="730" y2="292" stroke-opacity="0.23" stroke-width="1.07"/><line x1="730" y1="92" x2="815" y2="92" stroke-opacity="0.41" stroke-width="1.38"/><line x1="730" y1="92" x2="815" y2="132" stroke-opacity="0.14" stroke-width="0.81"/><line x1="730" y1="92" x2="815" y2="172" stroke-opacity="0.29" stroke-width="1.2"/><line x1="730" y1="92" x2="815" y2="212" stroke-opacity="0.24" stroke-width="1.09"/><line x1="730" y1="92" x2="815" y2="252" stroke-opacity="0.23" stroke-width="1.08"/><line x1="730" y1="92" x2="815" y2="292" stroke-opacity="0.18" stroke-width="0.96"/><line x1="730" y1="132" x2="815" y2="92" stroke-opacity="0.38" stroke-width="1.34"/><line x1="730" y1="132" x2="815" y2="132" stroke-opacity="0.46" stroke-width="1.44"/><line x1="730" y1="132" x2="815" y2="172" stroke-opacity="0.19" stroke-width="0.97"/><line x1="730" y1="132" x2="815" y2="212" stroke-opacity="0.28" stroke-width="1.16"/><line x1="730" y1="132" x2="815" y2="252" stroke-opacity="0.1" stroke-width="0.56"/><line x1="730" y1="132" x2="815" y2="292" stroke-opacity="0.3" stroke-width="1.2"/><line x1="730" y1="172" x2="815" y2="92" stroke-opacity="0.27" stroke-width="1.15"/><line x1="730" y1="172" x2="815" y2="132" stroke-opacity="0.49" stroke-width="1.49"/><line x1="730" y1="172" x2="815" y2="172" stroke-opacity="0.37" stroke-width="1.32"/><line x1="730" y1="172" x2="815" y2="212" stroke-opacity="0.13" stroke-width="0.78"/><line x1="730" y1="172" x2="815" y2="252" stroke-opacity="0.16" stroke-width="0.89"/><line x1="730" y1="172" x2="815" y2="292" stroke-opacity="0.28" stroke-width="1.17"/><line x1="730" y1="212" x2="815" y2="92" stroke-opacity="0.1" stroke-width="0.52"/><line x1="730" y1="212" x2="815" y2="132" stroke-opacity="0.19" stroke-width="0.96"/><line x1="730" y1="212" x2="815" y2="172" stroke-opacity="0.11" stroke-width="0.67"/><line x1="730" y1="212" x2="815" y2="212" stroke-opacity="0.11" stroke-width="0.62"/><line x1="730" y1="212" x2="815" y2="252" stroke-opacity="0.1" stroke-width="0.56"/><line x1="730" y1="212" x2="815" y2="292" stroke-opacity="0.34" stroke-width="1.27"/><line x1="730" y1="252" x2="815" y2="92" stroke-opacity="0.11" stroke-width="0.63"/><line x1="730" y1="252" x2="815" y2="132" stroke-opacity="0.12" stroke-width="0.75"/><line x1="730" y1="252" x2="815" y2="172" stroke-opacity="0.16" stroke-width="0.89"/><line x1="730" y1="252" x2="815" y2="212" stroke-opacity="0.4" stroke-width="1.37"/><line x1="730" y1="252" x2="815" y2="252" stroke-opacity="0.1" stroke-width="0.58"/><line x1="730" y1="252" x2="815" y2="292" stroke-opacity="0.18" stroke-width="0.95"/><line x1="730" y1="292" x2="815" y2="92" stroke-opacity="0.22" stroke-width="1.05"/><line x1="730" y1="292" x2="815" y2="132" stroke-opacity="0.41" stroke-width="1.38"/><line x1="730" y1="292" x2="815" y2="172" stroke-opacity="0.37" stroke-width="1.32"/><line x1="730" y1="292" x2="815" y2="212" stroke-opacity="0.4" stroke-width="1.36"/><line x1="730" y1="292" x2="815" y2="252" stroke-opacity="0.13" stroke-width="0.78"/><line x1="730" y1="292" x2="815" y2="292" stroke-opacity="0.17" stroke-width="0.92"/><line x1="815" y1="92" x2="900" y2="152" stroke-opacity="0.15" stroke-width="0.86"/><line x1="815" y1="92" x2="900" y2="192" stroke-opacity="0.41" stroke-width="1.38"/><line x1="815" y1="92" x2="900" y2="232" stroke-opacity="0.47" stroke-width="1.46"/><line x1="815" y1="132" x2="900" y2="152" stroke-opacity="0.11" stroke-width="0.65"/><line x1="815" y1="132" x2="900" y2="192" stroke-opacity="0.11" stroke-width="0.68"/><line x1="815" y1="132" x2="900" y2="232" stroke-opacity="0.12" stroke-width="0.73"/><line x1="815" y1="172" x2="900" y2="152" stroke-opacity="0.12" stroke-width="0.73"/><line x1="815" y1="172" x2="900" y2="192" stroke-opacity="0.19" stroke-width="0.98"/><line x1="815" y1="172" x2="900" y2="232" stroke-opacity="0.24" stroke-width="1.09"/><line x1="815" y1="212" x2="900" y2="152" stroke-opacity="0.13" stroke-width="0.76"/><line x1="815" y1="212" x2="900" y2="192" stroke-opacity="0.1" stroke-width="0.5"/><line x1="815" y1="212" x2="900" y2="232" stroke-opacity="0.17" stroke-width="0.92"/><line x1="815" y1="252" x2="900" y2="152" stroke-opacity="0.15" stroke-width="0.87"/><line x1="815" y1="252" x2="900" y2="192" stroke-opacity="0.23" stroke-width="1.07"/><line x1="815" y1="252" x2="900" y2="232" stroke-opacity="0.46" stroke-width="1.45"/><line x1="815" y1="292" x2="900" y2="152" stroke-opacity="0.29" stroke-width="1.19"/><line x1="815" y1="292" x2="900" y2="192" stroke-opacity="0.21" stroke-width="1.02"/><line x1="815" y1="292" x2="900" y2="232" stroke-opacity="0.25" stroke-width="1.12"/></g>
  <g filter="url(#soft)"><circle cx="560" cy="132" r="12" class="h ha" style="animation-delay:0s"/><circle cx="560" cy="172" r="12" class="h ha" style="animation-delay:0s"/><circle cx="560" cy="212" r="12" class="h ha" style="animation-delay:0s"/><circle cx="645" cy="92" r="12" class="h ha" style="animation-delay:0.46s"/><circle cx="645" cy="132" r="12" class="h ha" style="animation-delay:0.46s"/><circle cx="645" cy="212" r="12" class="h ha" style="animation-delay:0.46s"/><circle cx="645" cy="292" r="12" class="h ha" style="animation-delay:0.46s"/><circle cx="730" cy="92" r="12" class="h ha" style="animation-delay:0.96s"/><circle cx="730" cy="132" r="12" class="h ha" style="animation-delay:0.96s"/><circle cx="730" cy="212" r="12" class="h ha" style="animation-delay:0.96s"/><circle cx="730" cy="292" r="12" class="h ha" style="animation-delay:0.96s"/><circle cx="815" cy="92" r="12" class="h ha" style="animation-delay:1.46s"/><circle cx="815" cy="132" r="12" class="h ha" style="animation-delay:1.46s"/><circle cx="815" cy="172" r="12" class="h ha" style="animation-delay:1.46s"/><circle cx="815" cy="212" r="12" class="h ha" style="animation-delay:1.46s"/><circle cx="900" cy="152" r="12" class="h ha" style="animation-delay:1.96s"/><circle cx="560" cy="132" r="12" class="h hb" style="animation-delay:2.96s"/><circle cx="560" cy="172" r="12" class="h hb" style="animation-delay:2.96s"/><circle cx="560" cy="252" r="12" class="h hb" style="animation-delay:2.96s"/><circle cx="645" cy="172" r="12" class="h hb" style="animation-delay:3.46s"/><circle cx="645" cy="212" r="12" class="h hb" style="animation-delay:3.46s"/><circle cx="645" cy="292" r="12" class="h hb" style="animation-delay:3.46s"/><circle cx="730" cy="172" r="12" class="h hb" style="animation-delay:3.96s"/><circle cx="730" cy="252" r="12" class="h hb" style="animation-delay:3.96s"/><circle cx="730" cy="292" r="12" class="h hb" style="animation-delay:3.96s"/><circle cx="815" cy="92" r="12" class="h hb" style="animation-delay:4.46s"/><circle cx="815" cy="172" r="12" class="h hb" style="animation-delay:4.46s"/><circle cx="815" cy="252" r="12" class="h hb" style="animation-delay:4.46s"/><circle cx="815" cy="292" r="12" class="h hb" style="animation-delay:4.46s"/><circle cx="900" cy="232" r="12" class="h hb" style="animation-delay:4.96s"/></g>
  <g filter="url(#glow)"><path d="M560 132L645 92" pathLength="100" class="p a" style="animation-delay:0s"/><path d="M560 172L645 92" pathLength="100" class="p a" style="animation-delay:0s"/><path d="M560 212L645 92" pathLength="100" class="p a" style="animation-delay:0s"/><path d="M560 132L645 132" pathLength="100" class="p a" style="animation-delay:0s"/><path d="M560 172L645 132" pathLength="100" class="p a" style="animation-delay:0s"/><path d="M560 212L645 132" pathLength="100" class="p a" style="animation-delay:0s"/><path d="M560 172L645 212" pathLength="100" class="p a" style="animation-delay:0s"/><path d="M560 212L645 212" pathLength="100" class="p a" style="animation-delay:0s"/><path d="M560 132L645 292" pathLength="100" class="p a" style="animation-delay:0s"/><path d="M560 172L645 292" pathLength="100" class="p a" style="animation-delay:0s"/><path d="M560 212L645 292" pathLength="100" class="p a" style="animation-delay:0s"/><path d="M645 92L730 92" pathLength="100" class="p a" style="animation-delay:0.5s"/><path d="M645 292L730 92" pathLength="100" class="p a" style="animation-delay:0.5s"/><path d="M645 92L730 132" pathLength="100" class="p a" style="animation-delay:0.5s"/><path d="M645 132L730 132" pathLength="100" class="p a" style="animation-delay:0.5s"/><path d="M645 212L730 132" pathLength="100" class="p a" style="animation-delay:0.5s"/><path d="M645 292L730 132" pathLength="100" class="p a" style="animation-delay:0.5s"/><path d="M645 92L730 212" pathLength="100" class="p a" style="animation-delay:0.5s"/><path d="M645 212L730 212" pathLength="100" class="p a" style="animation-delay:0.5s"/><path d="M645 292L730 212" pathLength="100" class="p a" style="animation-delay:0.5s"/><path d="M645 132L730 292" pathLength="100" class="p a" style="animation-delay:0.5s"/><path d="M645 212L730 292" pathLength="100" class="p a" style="animation-delay:0.5s"/><path d="M645 292L730 292" pathLength="100" class="p a" style="animation-delay:0.5s"/><path d="M730 92L815 92" pathLength="100" class="p a" style="animation-delay:1s"/><path d="M730 132L815 92" pathLength="100" class="p a" style="animation-delay:1s"/><path d="M730 92L815 132" pathLength="100" class="p a" style="animation-delay:1s"/><path d="M730 132L815 132" pathLength="100" class="p a" style="animation-delay:1s"/><path d="M730 212L815 132" pathLength="100" class="p a" style="animation-delay:1s"/><path d="M730 292L815 132" pathLength="100" class="p a" style="animation-delay:1s"/><path d="M730 132L815 172" pathLength="100" class="p a" style="animation-delay:1s"/><path d="M730 292L815 172" pathLength="100" class="p a" style="animation-delay:1s"/><path d="M730 92L815 212" pathLength="100" class="p a" style="animation-delay:1s"/><path d="M815 172L900 152" pathLength="100" class="p a" style="animation-delay:1.5s"/><path d="M815 212L900 152" pathLength="100" class="p a" style="animation-delay:1.5s"/><path d="M560 132L645 172" pathLength="100" class="p b" style="animation-delay:3s"/><path d="M560 172L645 172" pathLength="100" class="p b" style="animation-delay:3s"/><path d="M560 252L645 172" pathLength="100" class="p b" style="animation-delay:3s"/><path d="M560 132L645 212" pathLength="100" class="p b" style="animation-delay:3s"/><path d="M560 172L645 212" pathLength="100" class="p b" style="animation-delay:3s"/><path d="M560 172L645 292" pathLength="100" class="p b" style="animation-delay:3s"/><path d="M560 252L645 292" pathLength="100" class="p b" style="animation-delay:3s"/><path d="M645 212L730 172" pathLength="100" class="p b" style="animation-delay:3.5s"/><path d="M645 292L730 172" pathLength="100" class="p b" style="animation-delay:3.5s"/><path d="M645 212L730 252" pathLength="100" class="p b" style="animation-delay:3.5s"/><path d="M645 212L730 292" pathLength="100" class="p b" style="animation-delay:3.5s"/><path d="M645 292L730 292" pathLength="100" class="p b" style="animation-delay:3.5s"/><path d="M730 172L815 92" pathLength="100" class="p b" style="animation-delay:4s"/><path d="M730 292L815 92" pathLength="100" class="p b" style="animation-delay:4s"/><path d="M730 172L815 172" pathLength="100" class="p b" style="animation-delay:4s"/><path d="M730 252L815 172" pathLength="100" class="p b" style="animation-delay:4s"/><path d="M730 292L815 172" pathLength="100" class="p b" style="animation-delay:4s"/><path d="M730 172L815 252" pathLength="100" class="p b" style="animation-delay:4s"/><path d="M730 292L815 252" pathLength="100" class="p b" style="animation-delay:4s"/><path d="M730 172L815 292" pathLength="100" class="p b" style="animation-delay:4s"/><path d="M730 252L815 292" pathLength="100" class="p b" style="animation-delay:4s"/><path d="M730 292L815 292" pathLength="100" class="p b" style="animation-delay:4s"/><path d="M815 92L900 232" pathLength="100" class="p b" style="animation-delay:4.5s"/><path d="M815 172L900 232" pathLength="100" class="p b" style="animation-delay:4.5s"/><path d="M815 252L900 232" pathLength="100" class="p b" style="animation-delay:4.5s"/></g>
  <circle cx="560" cy="132" r="7.5" fill="#1d2021" stroke="#5b67a8" stroke-width="1.5"/><circle cx="560" cy="132" r="2.4" fill="#c9d1ff" fill-opacity=".8"/><circle cx="560" cy="172" r="7.5" fill="#1d2021" stroke="#5b67a8" stroke-width="1.5"/><circle cx="560" cy="172" r="2.4" fill="#c9d1ff" fill-opacity=".8"/><circle cx="560" cy="212" r="7.5" fill="#1d2021" stroke="#5b67a8" stroke-width="1.5"/><circle cx="560" cy="212" r="2.4" fill="#c9d1ff" fill-opacity=".8"/><circle cx="560" cy="252" r="7.5" fill="#1d2021" stroke="#5b67a8" stroke-width="1.5"/><circle cx="560" cy="252" r="2.4" fill="#c9d1ff" fill-opacity=".8"/><circle cx="645" cy="92" r="7.5" fill="#1d2021" stroke="#5b67a8" stroke-width="1.5"/><circle cx="645" cy="92" r="2.4" fill="#c9d1ff" fill-opacity=".8"/><circle cx="645" cy="132" r="7.5" fill="#1d2021" stroke="#5b67a8" stroke-width="1.5"/><circle cx="645" cy="132" r="2.4" fill="#c9d1ff" fill-opacity=".8"/><circle cx="645" cy="172" r="7.5" fill="#1d2021" stroke="#5b67a8" stroke-width="1.5"/><circle cx="645" cy="172" r="2.4" fill="#c9d1ff" fill-opacity=".8"/><circle cx="645" cy="212" r="7.5" fill="#1d2021" stroke="#5b67a8" stroke-width="1.5"/><circle cx="645" cy="212" r="2.4" fill="#c9d1ff" fill-opacity=".8"/><circle cx="645" cy="252" r="7.5" fill="#1d2021" stroke="#5b67a8" stroke-width="1.5"/><circle cx="645" cy="252" r="2.4" fill="#c9d1ff" fill-opacity=".8"/><circle cx="645" cy="292" r="7.5" fill="#1d2021" stroke="#5b67a8" stroke-width="1.5"/><circle cx="645" cy="292" r="2.4" fill="#c9d1ff" fill-opacity=".8"/><circle cx="730" cy="92" r="7.5" fill="#1d2021" stroke="#5b67a8" stroke-width="1.5"/><circle cx="730" cy="92" r="2.4" fill="#c9d1ff" fill-opacity=".8"/><circle cx="730" cy="132" r="7.5" fill="#1d2021" stroke="#5b67a8" stroke-width="1.5"/><circle cx="730" cy="132" r="2.4" fill="#c9d1ff" fill-opacity=".8"/><circle cx="730" cy="172" r="7.5" fill="#1d2021" stroke="#5b67a8" stroke-width="1.5"/><circle cx="730" cy="172" r="2.4" fill="#c9d1ff" fill-opacity=".8"/><circle cx="730" cy="212" r="7.5" fill="#1d2021" stroke="#5b67a8" stroke-width="1.5"/><circle cx="730" cy="212" r="2.4" fill="#c9d1ff" fill-opacity=".8"/><circle cx="730" cy="252" r="7.5" fill="#1d2021" stroke="#5b67a8" stroke-width="1.5"/><circle cx="730" cy="252" r="2.4" fill="#c9d1ff" fill-opacity=".8"/><circle cx="730" cy="292" r="7.5" fill="#1d2021" stroke="#5b67a8" stroke-width="1.5"/><circle cx="730" cy="292" r="2.4" fill="#c9d1ff" fill-opacity=".8"/><circle cx="815" cy="92" r="7.5" fill="#1d2021" stroke="#5b67a8" stroke-width="1.5"/><circle cx="815" cy="92" r="2.4" fill="#c9d1ff" fill-opacity=".8"/><circle cx="815" cy="132" r="7.5" fill="#1d2021" stroke="#5b67a8" stroke-width="1.5"/><circle cx="815" cy="132" r="2.4" fill="#c9d1ff" fill-opacity=".8"/><circle cx="815" cy="172" r="7.5" fill="#1d2021" stroke="#5b67a8" stroke-width="1.5"/><circle cx="815" cy="172" r="2.4" fill="#c9d1ff" fill-opacity=".8"/><circle cx="815" cy="212" r="7.5" fill="#1d2021" stroke="#5b67a8" stroke-width="1.5"/><circle cx="815" cy="212" r="2.4" fill="#c9d1ff" fill-opacity=".8"/><circle cx="815" cy="252" r="7.5" fill="#1d2021" stroke="#5b67a8" stroke-width="1.5"/><circle cx="815" cy="252" r="2.4" fill="#c9d1ff" fill-opacity=".8"/><circle cx="815" cy="292" r="7.5" fill="#1d2021" stroke="#5b67a8" stroke-width="1.5"/><circle cx="815" cy="292" r="2.4" fill="#c9d1ff" fill-opacity=".8"/><circle cx="900" cy="152" r="7.5" fill="#1d2021" stroke="#5b67a8" stroke-width="1.5"/><circle cx="900" cy="152" r="2.4" fill="#c9d1ff" fill-opacity=".8"/><circle cx="900" cy="192" r="7.5" fill="#1d2021" stroke="#5b67a8" stroke-width="1.5"/><circle cx="900" cy="192" r="2.4" fill="#c9d1ff" fill-opacity=".8"/><circle cx="900" cy="232" r="7.5" fill="#1d2021" stroke="#5b67a8" stroke-width="1.5"/><circle cx="900" cy="232" r="2.4" fill="#c9d1ff" fill-opacity=".8"/>
  <rect x="918" y="149" width="48" height="6" rx="3" fill="#3c3836"/><rect x="918" y="189" width="48" height="6" rx="3" fill="#3c3836"/><rect x="918" y="229" width="48" height="6" rx="3" fill="#3c3836"/>
  <g filter="url(#glow)"><rect x="918" y="149" width="48" height="6" rx="3" class="bar bara0 af"/><rect x="918" y="189" width="48" height="6" rx="3" class="bar bara1 af"/><rect x="918" y="229" width="48" height="6" rx="3" class="bar bara2 af"/><rect x="918" y="149" width="48" height="6" rx="3" class="bar barb0 bf"/><rect x="918" y="189" width="48" height="6" rx="3" class="bar barb1 bf"/><rect x="918" y="229" width="48" height="6" rx="3" class="bar barb2 bf"/></g>
  <text x="984" y="342" text-anchor="end" class="mono" font-size="13" fill="#a89984">a = σ(Wx + b)</text>

  <text x="64" y="118" class="mono" font-size="15" fill="#928374">// i am</text>
  <g class="mono nm">
    <text x="64" y="202" class="gp">r33hab</text>
    <text x="64" y="202" class="gc">r33hab</text>
    <text x="64" y="202" fill="url(#title)">r33hab</text>
  </g>
  <text x="64" y="250" class="sans" font-size="22" font-weight="600" fill="#ebdbb2">App developer · AI &amp; neural networks</text>
  <text x="64" y="282" class="sans" font-size="16" fill="#a89984">6+ years of shipping apps and .NET platforms on Kubernetes.</text>
  <text x="64" y="304" class="sans" font-size="16" fill="#a89984">Lately: building and training my own neural networks.</text>
</g>
<rect x=".5" y=".5" width="999" height="359" rx="18" fill="none" stroke="#3c3836"/>
</svg>
